<?xml version="1.0" encoding="utf-8"?>
<!-- Generator: Adobe Illustrator 27.5.0, SVG Export Plug-In . SVG Version: 6.00 Build 0)  -->
<svg version="1.1" xmlns="http://www.w3.org/2000/svg" xmlns:xlink="http://www.w3.org/1999/xlink" x="0px" y="0px"
	 viewBox="0 0 500 500" style="enable-background:new 0 0 500 500;" xml:space="preserve">
<g id="BACKGROUND">
	<rect style="fill:#E5CFB1;" width="500" height="500"/>
	<path style="fill:none;stroke:#2C1417;stroke-width:3;stroke-miterlimit:10;" d="M51.015,213.124"/>
</g>
<g id="OBJECTS">
	<g>
		<g>
			<path style="fill:#E2B061;" d="M73.015,247.307c0,0-22.496-3.975-22-34.184c0,0-28.781-5.899-19.59,25.35
				c0,0-1.702,13.718,9.872,12.782c0,0-3.799,19.194,15.122,16.448L73.015,247.307z"/>
		</g>
		<g>
			<g>
				<g>
					<path style="fill:#E2B061;" d="M168.79,246.864v54.459c0,0,3.327,4.641,23.231,3.379c18.2-1.154,0.267-13.331,0.267-13.331
						l-1.382-44.507H168.79z"/>
				</g>
			</g>
			<g>
				<g>
					<path style="fill:#F4EEE4;" d="M168.79,295.636c0,0,10.517-6.116,21.832-4.607c1.876,0.25,3.64,1.055,5.053,2.314
						c4.225,3.764,11.784,12.295-6.609,12.232c0,0-12.351,1.349-20.276-3.738V295.636z"/>
				</g>
			</g>
		</g>
		<g>
			<g>
				<path style="fill:#E2B061;" d="M203.899,207.568c3.938-12.722,21.375-22.212,14.59-36.819
					c25.014-5.45-10.579-12.664-9.866-43.095c-0.423-12.813,1.178-70.813-10.072-74.935c-16.474-1.323-36.121,36.911-42.801,50.284
					c-12.543-0.6-25.934,1.552-37.804,5.65C99.148,95.205,78.282,78.606,54.566,80.298c-13.746,8.565,16.221,62.448,25.288,71.852
					c1.562,13.508,3.316,25.999-4.28,40.872c-3.152,6.171,2.948,7.801,7.723,5.809c-3.261,15.961,8.798,8.432,13.159,12.295
					c-11.702,8.518-17.98,22.779-23.442,36.182c-13.462-1.135-18.203,17.067-16.277,27.687c1.784,8.643,8.355,15.373,14.63,21.577
					c-9.777-3.894-11.375,11.871-0.709,11.791c66.376,1.683,100.919,7.46,125.727-67.963c-0.173,2.693,0.286,4.933,0.833,7.576
					C206.335,238.474,210.16,219.462,203.899,207.568z"/>
			</g>
		</g>
		<g>
			<g>
				<path style="fill:#F4EEE4;" d="M72.615,295.21c0,0-10.342-1.662-9.937,6.91c0.405,8.571,9.913,7.053,9.913,7.053h12.984
					C85.576,309.173,80.199,294.868,72.615,295.21z"/>
			</g>
		</g>
		<g>
			<g>
				<g>
					<path style="fill:#F4EEE4;" d="M203.899,208.568c2.681-5.745,6.11-11.141,10.172-16.009c1.93-2.313,4.028-5.545,5.354-8.249
						c2.017-4.115,2.005-9.167-0.033-13.273c2.519-0.669,4.978-1.563,7.338-2.668c0.887-0.415,1.878-1.026,1.951-2.003
						c0.053-0.708-0.411-1.34-0.859-1.892c-0.998-1.232-2.032-2.435-3.079-3.627c-16.625,7.193-80.403,29.072-82.648-57.467
						c-3.475,0.342-6.951,0.859-10.38,1.545c0.006,0.018,34.815,98.036-53.698,82.514l-0.028,0.025
						c-0.761,1.884-1.671,3.704-2.792,5.41c-0.686,1.044-1.47,2.133-1.473,3.382c-0.004,1.751,1.612,3.165,3.322,3.544
						c1.709,0.378,3.484-0.029,5.187-0.434c-1.451,3.852-0.6,9.237,3.309,10.529c3.372,1.115,7.833-1.199,10.257,1.398
						C95.802,211.294,138.171,239.796,203.899,208.568z"/>
				</g>
			</g>
			<g>
				<g>
					<path style="fill:#F4EEE4;" d="M80.54,139.481c0,0-12.654-7.992-19.921-41.7c-0.62-2.874,1.724-5.544,4.65-5.256
						c8.57,0.844,25.096,4.461,38.123,19.312C103.393,111.836,86.069,120.314,80.54,139.481z"/>
				</g>
			</g>
			<g>
				<g>
					<path style="fill:#F4EEE4;" d="M166.541,104.765c0,0-1.012-16.731,24.343-36.549c2.162-1.69,5.358-0.808,6.306,1.767
						c2.777,7.541,9.04,25.745,1.866,42.729C199.056,112.712,184.888,101.611,166.541,104.765z"/>
				</g>
			</g>
			<g>
				<g>
					<g>
						<path style="fill:#F4EEE4;" d="M116.61,146.383c1.346,2.332-1.207,6.326-5.702,8.922c-4.496,2.596-9.231,2.809-10.578,0.477
							c-1.346-2.332,1.207-6.326,5.702-8.922C110.528,144.265,115.264,144.051,116.61,146.383z"/>
					</g>
				</g>
				<g>
					<g>
						<path style="fill:#F4EEE4;" d="M194.977,143.344c-1.107,2.455-5.84,2.715-10.572,0.582c-4.732-2.133-7.671-5.853-6.565-8.307
							c1.107-2.455,5.84-2.715,10.572-0.582C193.144,137.17,196.083,140.889,194.977,143.344z"/>
					</g>
				</g>
				<g>
					<g>
						<g>
							
								<ellipse transform="matrix(0.9813 -0.1925 0.1925 0.9813 -33.6836 26.267)" style="fill:#E79D75;" cx="118.354" cy="186.502" rx="12.47" ry="8.335"/>
						</g>
					</g>
				</g>
				<g>
					<g>
						<g>
							<path style="fill:#E79D75;" d="M202.821,169.935c0.886,4.517-3.875,9.254-10.633,10.579
								c-6.758,1.326-12.955-1.262-13.841-5.779c-0.886-4.517,3.875-9.253,10.633-10.579
								C195.738,162.831,201.935,165.418,202.821,169.935z"/>
						</g>
					</g>
				</g>
				<g>
					<g>
						<g>
							<g>
								<g>
									<circle style="fill:#2C1417;" cx="116.798" cy="167.712" r="8.667"/>
								</g>
							</g>
						</g>
						<g>
							<g>
								<g>
									<path style="fill:#F6F3F4;" d="M119.91,164.6c0,1.718-1.393,3.111-3.111,3.111c-1.718,0-3.111-1.393-3.111-3.111
										c0-1.718,1.393-3.111,3.111-3.111C118.517,161.489,119.91,162.882,119.91,164.6z"/>
								</g>
							</g>
						</g>
						<g>
							<g>
								<g>
									<path style="fill:#F6F3F4;" d="M119.91,170.749c0,0.859-0.696,1.556-1.556,1.556c-0.859,0-1.556-0.697-1.556-1.556
										c0-0.859,0.697-1.556,1.556-1.556C119.213,169.193,119.91,169.89,119.91,170.749z"/>
								</g>
							</g>
						</g>
					</g>
					<g>
						<g>
							<g>
								<g>
									<circle style="fill:#2C1417;" cx="183.297" cy="155.958" r="8.667"/>
								</g>
							</g>
						</g>
						<g>
							<g>
								<g>
									<path style="fill:#F6F3F4;" d="M186.408,152.847c0,1.718-1.393,3.111-3.111,3.111c-1.718,0-3.111-1.393-3.111-3.111
										c0-1.718,1.393-3.111,3.111-3.111C185.015,149.735,186.408,151.128,186.408,152.847z"/>
								</g>
							</g>
						</g>
						<g>
							<g>
								<g>
									<circle style="fill:#F6F3F4;" cx="184.853" cy="158.995" r="1.556"/>
								</g>
							</g>
						</g>
					</g>
					<g>
						<g>
							<g>
								<g>
									<path style="fill:#2C1417;" d="M166.604,171.73C166.605,171.73,166.605,171.73,166.604,171.73
										c0.757,3.859-1.766,7.613-5.625,8.37c-3.858,0.757-7.614-1.766-8.37-5.625c0,0,0,0,0,0l-3.316,0.651c0,0,0,0,0,0
										c0.757,3.858-1.767,7.613-5.625,8.37c-3.859,0.757-7.613-1.766-8.37-5.625c0,0,0,0,0,0l-3.316,0.65c0,0,0,0,0,0
										c1.115,5.687,6.649,9.406,12.337,8.291c3.627-0.712,6.446-3.223,7.729-6.423c2.396,2.478,5.956,3.738,9.583,3.027
										c5.687-1.116,9.406-6.65,8.291-12.337c0,0,0,0,0,0L166.604,171.73z"/>
								</g>
							</g>
						</g>
						<g>
							<g>
								<g>
									<path style="fill:#2C1417;" d="M158.869,168.627c0.626,3.192-3.118,6.613-8.363,7.642
										c-5.245,1.029-10.005-0.725-10.63-3.916c-0.626-3.192,3.118-6.613,8.363-7.642
										C153.484,163.682,158.243,165.435,158.869,168.627z"/>
								</g>
							</g>
							<g>
								<g>
									<path style="fill:#F6F3F4;" d="M155.456,169.1c0,0.767-1.176,1.389-2.626,1.389c-1.45,0-2.626-0.622-2.626-1.389
										c0-0.767,1.176-1.389,2.626-1.389C154.281,167.712,155.456,168.333,155.456,169.1z"/>
								</g>
							</g>
						</g>
					</g>
				</g>
			</g>
			<g>
				<g>
					<path style="fill:#E2B061;" d="M85.854,127.962l-3.898-11.97l8.553,5.985v-5.985l3.975,2.09
						C94.483,118.082,98.539,128.239,85.854,127.962z"/>
				</g>
			</g>
			<g>
				<g>
					<path style="fill:#E2B061;" d="M176.861,105.213l8.418-9.361l-0.907,10.4l5.183-2.993l0.177,4.487
						C189.733,107.746,182.965,116.337,176.861,105.213z"/>
				</g>
			</g>
		</g>
		<g>
			<g>
				<path style="fill:#F4EEE4;" d="M95.802,211.294c0,0-16.367,22.177,4.643,25.863c21.01,3.686,56.453,13.298,57.404,35.742
					l1.109,26.182c0,0,30.808-15.436,37.429-55.68l0.498,6.599c0,0,17.811-18.344,7.61-43.675
					C204.495,206.325,149.765,197.226,95.802,211.294z"/>
			</g>
		</g>
		<g>
			<g>
				<g>
					<path style="fill:#E2B061;" d="M135.46,266.46v42.572c0,0,3.041,5.465,22.945,4.203c18.2-1.154,0.553-14.155,0.553-14.155
						l-1.382-32.62H135.46z"/>
				</g>
			</g>
			<g>
				<g>
					<path style="fill:#F4EEE4;" d="M135.46,302.639c0,0,11.138-6.006,23.498-2.577c0,0,20.371,13.405-3.222,13.317
						c0,0-12.351,1.458-20.276-4.04V302.639z"/>
				</g>
			</g>
		</g>
		<g>
			
				<rect x="84.076" y="270.966" transform="matrix(0.9968 -0.0797 0.0797 0.9968 -22.8472 7.747)" style="fill:#2C1417;" width="3" height="37.954"/>
		</g>
		<g>
			<path style="fill:#2C1417;" d="M155.126,315.264c-6.341,0-13.428-1.139-17.466-2.792c-2.248-0.921-3.7-3.09-3.7-5.524V266.46h3
				v40.487c0,1.212,0.721,2.291,1.837,2.749c6.739,2.759,22.214,3.695,26.161,0.821c0.716-0.522,0.685-0.93,0.67-1.125
				c-0.47-6.114-6.979-7.86-7.044-7.878l-1.079-0.277l-1.428-34.716l2.997-0.123l1.34,32.569c2.349,0.898,7.703,3.649,8.205,10.194
				c0.08,1.037-0.184,2.535-1.895,3.78C164.468,314.586,160.019,315.264,155.126,315.264z"/>
		</g>
		<g>
			<path style="fill:#2C1417;" d="M148.77,216.24c-6.028,0-12.593-0.71-19.544-2.521l0.756-2.903
				c30.343,7.906,53.685-6.382,53.917-6.527l1.591,2.544C184.715,207.317,170.132,216.24,148.77,216.24z"/>
		</g>
		<g>
			<path style="fill:#2C1417;" d="M51.811,269.563c-1.327,0-2.75-0.256-4.158-0.956c-4.148-2.065-6.729-7.285-7.681-15.526
				c-1.217,0.121-2.869,0.013-4.529-0.958c-3.027-1.773-4.91-5.683-5.595-11.624l2.981-0.344c0.563,4.883,1.992,8.127,4.13,9.378
				c1.854,1.085,3.741,0.347,3.759,0.34l1.9-0.796l0.174,2.053c0.677,7.982,2.814,13.093,6.18,14.783
				c2.759,1.386,5.83,0.197,7.083-0.414c0.622-3.832,4.035-19.955,16.992-19.69l-0.065,2.999c-0.083-0.001-0.166-0.002-0.248-0.002
				c-11.511,0-13.793,17.658-13.815,17.837l-0.086,0.707l-0.603,0.38C58.07,267.83,55.268,269.561,51.811,269.563z"/>
		</g>
	</g>
	<g>
		<g>
			<g>
				<g>
					<path style="fill:#E2B061;" d="M415.513,196.975c0,0,7.649-10.266,13.118-0.11c5.469,10.156-17.476,32.379-17.476,32.379
						S405.96,201.016,415.513,196.975z"/>
				</g>
			</g>
			<g>
				<path style="fill:#F4EEE4;" d="M427.308,208.238c2.052-4.257,2.951-8.35,1.323-11.373c-5.469-10.156-13.118,0.11-13.118,0.11
					S422.564,199.887,427.308,208.238z"/>
			</g>
		</g>
		<g>
			<g>
				<path style="fill:#E2B061;" d="M305.318,120.334c-32.452-65.912-23.058-79.976,38.614-34.015
					c11.955-4.489,24.762-8.125,37.489-7.072c3.366-9.347,29.424-64.352,41.225-46.046c8.299,17.732,3.967,44.247,5.343,63.988
					c-0.067,11.098,9.024,20.305,17.99,26.845c2.483,2.044-2.867,3.439-4.04,4.743c3.466,2.895,6.059,6.822,7.358,11.146
					c-1.454-0.622-3.037-0.942-4.619-0.932c-2.816,21.25-19.129,40.093-39.757,45.922c8.976,4.35,15.013,14.646,14.225,24.59
					c-1.334-1.327-3.196-2.108-5.077-2.128c3.007,8.816-2.63,15.334-2.41,23.628c1.97,17.59-8.086,42.327-29.005,38.652
					c-10.235,14.105-41.274,18.229-27.579-7.206c-8.402,3.993-18.572,3.232-27.245-0.134c-6.392,1.882-14.779,2.228-21.352,1.134
					c7.252,23.33-8.755,23.455-20.796,7.654c-1.531-1.668-3.253-3.362-5.465-3.848c-9.734-2.137-18.532-12.581-20.575-22.335
					c-6.865-28.553,35.194-70.676,59.237-81.256c-1.902-0.514-3.449-1.366-5.385-1.761c-2.776-4.251,2.463-8.853,5.847-11.473
					C308.719,149.307,305.988,128.941,305.318,120.334z"/>
			</g>
		</g>
		<g>
			<g>
				<path style="fill:#F4EEE4;" d="M297.402,80.462c-9.339-26.66,30.297,1.576,34.862,8.176
					C307.352,121.252,310.279,117.219,297.402,80.462z"/>
			</g>
		</g>
		<g>
			<g>
				<path style="fill:#E2B061;" d="M316.504,99.549c1.158-0.495,2.661,0.103,3.164,1.257c-0.752-3.148-1.279-6.854,0.859-9.284
					c-0.029,2.861,1.084,5.717,3.042,7.803c0.597,0.636,1.287,1.23,1.612,2.039c0.582,1.449-0.182,3.078-1.09,4.349
					C319.776,111.757,317.737,102.79,316.504,99.549z"/>
			</g>
		</g>
		<g>
			<g>
				<path style="fill:#F4EEE4;" d="M419.306,84.2c4.335-9.412,1.764-31.491,0.7-39.788c-0.483-3.45-5.078-4.528-7.152-1.691
					l-11.156,15.263c-4.768,6.49-7.215,12.55-8.006,17.818C401.036,75.46,410.604,76.922,419.306,84.2z"/>
			</g>
		</g>
		<g>
			<g>
				<path style="fill:#F4EEE4;" d="M441.939,128.777c10.628-5.371-0.326-5.194-7.262-15.095
					c-37.992,10.408-44.442,1.215-59.219-34.588c-2.971,0.074-5.938,0.366-8.89,0.837c17.432,18.977,28.975,58.137-6.819,60.361
					c-14.367,3.226-34.475-2.483-46.483,6.922c1.4,1.9,3.701,3.337,6.076,3.218c-3.405,2.606-8.608,7.232-5.847,11.473
					c1.958,0.402,3.468,1.241,5.385,1.762c9.024-1.299,27.385-4.537,36.271-2.499c11.798,0.669,10.943,17.772,20.15,20.36
					c11.512-1.21,12.192,4.714,19.714,11.442c13.712,5.297,15.576,5.011,19.776,20.156c-0.124-1.923-0.416-3.856-0.721-5.748
					c1.881,0.02,3.744,0.8,5.077,2.128c0.787-9.944-5.249-20.24-14.225-24.59c1.59-0.449,3.151-0.985,4.686-1.584
					c-0.014-0.007-0.028-0.015-0.043-0.023c0.025,0.004,0.051,0.006,0.076,0.01c18.357-7.182,32.44-24.725,35.038-44.325
					c1.582-0.01,3.165,0.31,4.619,0.932C447.998,135.598,445.405,131.671,441.939,128.777z"/>
			</g>
		</g>
		<g>
			<g>
				<g>
					<path style="fill:#E79D75;" d="M373.786,139.548c0.924,4.302-3.545,8.91-9.982,10.292c-6.437,1.382-12.404-0.985-13.328-5.287
						c-0.924-4.302,3.545-8.91,9.982-10.292C366.895,132.879,372.862,135.246,373.786,139.548z"/>
				</g>
			</g>
		</g>
		<g>
			<g>
				<g>
					<g>
						<g>
							<path style="fill:#2C1417;" d="M367.188,122.831c0.452,4.56-2.878,8.622-7.438,9.074c-4.56,0.452-8.622-2.878-9.074-7.438
								c-0.452-4.56,2.878-8.622,7.438-9.074C362.673,114.941,366.736,118.271,367.188,122.831z"/>
						</g>
					</g>
				</g>
				<g>
					<g>
						<g>
							<path style="fill:#F6F3F4;" d="M361.602,120.392c0.162,1.637-1.033,3.095-2.67,3.257c-1.637,0.162-3.095-1.033-3.257-2.67
								c-0.162-1.637,1.033-3.095,2.67-3.257C359.981,117.559,361.44,118.755,361.602,120.392z"/>
						</g>
					</g>
				</g>
				<g>
					<g>
						<g>
							<path style="fill:#F6F3F4;" d="M362.182,126.248c0.081,0.818-0.517,1.548-1.335,1.629c-0.818,0.081-1.548-0.517-1.629-1.335
								c-0.081-0.818,0.517-1.548,1.335-1.629C361.372,124.832,362.101,125.43,362.182,126.248z"/>
						</g>
					</g>
				</g>
			</g>
			<g>
				<g>
					<g>
						<g>
							<path style="fill:#2C1417;" d="M422.26,108.226c0.452,4.56-2.878,8.622-7.438,9.074c-4.56,0.452-8.622-2.878-9.074-7.438
								c-0.452-4.56,2.878-8.622,7.438-9.074C417.746,100.336,421.808,103.666,422.26,108.226z"/>
						</g>
					</g>
				</g>
				<g>
					<g>
						<g>
							<path style="fill:#F6F3F4;" d="M416.674,105.787c0.162,1.637-1.033,3.095-2.67,3.257c-1.637,0.162-3.095-1.033-3.257-2.67
								c-0.162-1.637,1.033-3.095,2.67-3.257C415.054,102.954,416.512,104.15,416.674,105.787z"/>
						</g>
					</g>
				</g>
				<g>
					<g>
						<g>
							<path style="fill:#F6F3F4;" d="M417.254,111.643c0.081,0.818-0.517,1.548-1.335,1.629c-0.818,0.081-1.548-0.517-1.629-1.335
								c-0.081-0.818,0.517-1.548,1.335-1.629C416.444,110.227,417.173,110.825,417.254,111.643z"/>
						</g>
					</g>
				</g>
			</g>
			<g>
				<g>
					<path style="fill:#F17085;" d="M391.838,133.229c0,0,2.104,11.334,10.099,9.869c7.995-1.464,2.689-13.047,2.689-13.047
						l-7.831-2.105L391.838,133.229z"/>
				</g>
			</g>
			<g>
				<g>
					<g>
						<g>
							<path style="fill:#2C1417;" d="M411.054,122.573C411.054,122.573,411.054,122.574,411.054,122.573
								c0.466,3.282-1.825,6.331-5.107,6.797c-3.282,0.466-6.331-1.825-6.797-5.107c0,0,0,0,0,0l-2.821,0.4c0,0,0,0,0,0
								c0.466,3.282-1.825,6.331-5.107,6.797c-3.282,0.466-6.331-1.825-6.797-5.107c0,0,0,0,0,0l-2.821,0.4c0,0,0,0,0,0
								c0.687,4.837,5.18,8.214,10.018,7.528c3.085-0.438,5.57-2.427,6.792-5.064c1.907,2.193,4.848,3.412,7.933,2.974
								c4.838-0.686,8.215-5.18,7.528-10.018c0,0,0,0,0,0L411.054,122.573z"/>
						</g>
					</g>
				</g>
				<g>
					<g>
						<g>
							<path style="fill:#2C1417;" d="M404.679,119.618c0.385,2.715-2.919,5.429-7.38,6.062c-4.461,0.633-8.39-1.055-8.776-3.769
								c-0.385-2.715,2.919-5.429,7.38-6.062S404.294,116.903,404.679,119.618z"/>
						</g>
					</g>
					<g>
						<g>
							<path style="fill:#F6F3F4;" d="M401.785,119.865c-0.034,0.646-1.052,1.117-2.273,1.053c-1.221-0.064-2.183-0.64-2.149-1.286
								c0.034-0.646,1.052-1.117,2.273-1.053S401.819,119.219,401.785,119.865z"/>
						</g>
					</g>
				</g>
			</g>
		</g>
		<g>
			<g>
				<g>
					<path style="fill:#E79D75;" d="M439.078,123.378c0.593,4.15-3.96,8.233-10.168,9.12c-6.209,0.887-11.723-1.758-12.316-5.907
						c-0.593-4.15,3.96-8.233,10.168-9.12C432.971,116.583,438.485,119.228,439.078,123.378z"/>
				</g>
			</g>
		</g>
		<g>
			<g>
				<path style="fill:#F4EEE4;" d="M352.104,103.926c2.116,2.116,0.77,6.894-3.007,10.671c-3.777,3.777-8.555,5.124-10.671,3.007
					s-0.77-6.894,3.007-10.671C345.21,103.156,349.988,101.81,352.104,103.926z"/>
			</g>
		</g>
		<g>
			<g>
				<path style="fill:#F4EEE4;" d="M422.75,92.032c-0.158,2.989-4.61,5.183-9.944,4.902c-5.334-0.282-9.531-2.933-9.373-5.921
					c0.158-2.989,4.61-5.183,9.944-4.902C418.711,86.392,422.908,89.043,422.75,92.032z"/>
			</g>
		</g>
		<g>
			<g>
				<polygon style="fill:#E2B061;" points="399.574,75.947 405.707,72.145 404.261,76.706 413.091,70.714 410.732,81.064 				"/>
			</g>
		</g>
		<g>
			<g>
				<path style="fill:#F4EEE4;" d="M316.504,202.842c0,0-34.078-5.285-33.373,19.731c0.705,25.016,12.853,23.503,12.853,23.503
					l10.496,17.373c0,0,9.326,1.965,21.352-1.134c0,0,15.333,6.186,27.245,0.134c0,0,48.448-49.038-9.811-58.198L316.504,202.842z"
					/>
			</g>
		</g>
		<g>
			<g>
				<g>
					<path style="fill:#E2B061;" d="M316.504,202.842c0,0-21.394,9.513-10.824,20.788c10.57,11.275,13.741,0,13.741,0
						s-2.114,10.708,3.171,10.111c5.285-0.597,11.98-0.832,11.627,3.69c-0.352,4.522,9.161-7.106,9.161-7.106
						s8.809-0.306,3.171-9.666c0,0,15.463-3.018,2.623-17.816H316.504z"/>
				</g>
			</g>
			<g>
				<g>
					<path style="fill:#2C1417;" d="M334.71,239.99c-0.325,0-0.549-0.09-0.723-0.16c-0.528-0.212-1.395-0.821-1.263-2.517
						c0.059-0.757-0.189-1.1-0.41-1.314c-1.137-1.097-4.347-1.357-9.554-0.768c-1.438,0.158-2.688-0.272-3.598-1.26
						c-1.115-1.212-1.543-3.11-1.647-4.982c-0.605,0.433-1.308,0.782-2.116,0.979c-3.143,0.769-6.787-1.018-10.814-5.312
						c-0.141-0.137-4.442-4.446-3.3-10.194c1.017-5.111,5.947-9.489,14.655-13.011l1.125,2.781
						c-7.587,3.068-12.023,6.799-12.832,10.789c-0.841,4.149,2.468,7.509,2.502,7.542c3.219,3.431,5.948,4.968,7.941,4.492
						c2.329-0.56,3.292-3.805,3.302-3.837l2.914,0.701c-0.504,2.569-0.689,6.755,0.478,8.02c0.177,0.192,0.435,0.378,1.054,0.31
						c4.572-0.516,9.569-0.73,11.975,1.591c0.692,0.669,1.122,1.508,1.272,2.467c1.614-1.314,4.361-4.261,6.548-6.933l0.431-0.526
						l0.679-0.023c0.019-0.001,2.543-0.152,3.337-1.633c0.63-1.172,0.133-3.218-1.399-5.761l-1.105-1.836l2.104-0.41
						c0.047-0.009,5.063-1.051,6.249-4.523c0.912-2.667-0.635-6.415-4.472-10.838l2.266-1.966c4.65,5.359,6.346,9.999,5.039,13.791
						c-1.177,3.418-4.465,5.139-6.594,5.92c1.365,2.84,1.551,5.21,0.546,7.061c-1.238,2.284-3.874,2.936-5.15,3.121
						C338.265,238.865,335.857,239.99,334.71,239.99z"/>
				</g>
			</g>
		</g>
		<g>
			<g>
				<g>
					<path style="fill:#F4EEE4;" d="M284.376,269.756c0,0-6.883-8.031,3.511-15.892c10.394-7.861,19.418,13.965,19.418,13.965
						s5.192,12.734-4.559,14.216C302.747,282.045,294.078,283.996,284.376,269.756z"/>
				</g>
			</g>
			<g>
				<g>
					<g>
						<path style="fill:#E79D75;" d="M298.836,264.206c-0.432,2.324-2.666,3.857-4.99,3.425c-2.324-0.432-3.857-2.666-3.425-4.99
							c0.432-2.324,2.666-3.857,4.99-3.425C297.735,259.648,299.268,261.882,298.836,264.206z"/>
					</g>
				</g>
				<g>
					<g>
						<path style="fill:#E79D75;" d="M294.691,271.905c-0.216,1.162-1.333,1.928-2.495,1.712s-1.928-1.333-1.712-2.495
							s1.333-1.928,2.495-1.712C294.141,269.626,294.907,270.743,294.691,271.905z"/>
					</g>
				</g>
				<g>
					<g>
						<path style="fill:#E79D75;" d="M300.65,273.014c-0.216,1.162-1.333,1.928-2.495,1.712s-1.928-1.333-1.712-2.495
							c0.216-1.162,1.333-1.928,2.495-1.712S300.866,271.852,300.65,273.014z"/>
					</g>
				</g>
				<g>
					<g>
						<path style="fill:#E79D75;" d="M304.294,268.008c-0.216,1.162-1.333,1.928-2.495,1.712c-1.162-0.216-1.928-1.333-1.712-2.495
							c0.216-1.162,1.333-1.928,2.495-1.712C303.743,265.729,304.51,266.846,304.294,268.008z"/>
					</g>
				</g>
			</g>
		</g>
		<g>
			<g>
				<g>
					<path style="fill:#F4EEE4;" d="M357.811,260.603c2.598-2.98,5.964-5.257,9.792-6.247c3.836-0.993,8.437-0.827,11.496,3.803
						c6.119,9.262-8.185,19.398-8.185,19.398s-14.727,10.436-19.174-1.451C351.74,276.106,347.971,271.891,357.811,260.603z"/>
				</g>
			</g>
			<g>
				<g>
					<g>
						<path style="fill:#E79D75;" d="M368.924,270.14c-2.363-0.048-4.239-2.003-4.191-4.366c0.048-2.363,2.003-4.239,4.366-4.191
							c2.363,0.048,4.239,2.003,4.191,4.366C373.241,268.311,371.287,270.188,368.924,270.14z"/>
					</g>
				</g>
				<g>
					<g>
						<path style="fill:#E79D75;" d="M360.652,267.303c-1.181-0.024-2.12-1.001-2.096-2.183c0.024-1.182,1.001-2.12,2.183-2.096
							c1.181,0.024,2.12,1.001,2.096,2.183C362.811,266.389,361.834,267.328,360.652,267.303z"/>
					</g>
				</g>
				<g>
					<g>
						<path style="fill:#E79D75;" d="M360.529,273.363c-1.181-0.024-2.12-1.001-2.096-2.183c0.024-1.182,1.002-2.12,2.183-2.096
							c1.181,0.024,2.12,1.001,2.095,2.183C362.688,272.449,361.71,273.387,360.529,273.363z"/>
					</g>
				</g>
				<g>
					<g>
						<path style="fill:#E79D75;" d="M366.061,276.143c-1.181-0.024-2.12-1.001-2.096-2.183c0.024-1.181,1.001-2.12,2.183-2.096
							c1.181,0.024,2.12,1.002,2.096,2.183C368.22,275.229,367.243,276.167,366.061,276.143z"/>
					</g>
				</g>
			</g>
		</g>
		<g>
			<path style="fill:#2C1417;" d="M402.976,184.963c-4.822,0-10.131-0.972-15.879-3.389l1.162-2.766
				c25.568,10.753,41.74-9.436,43.5-11.775l2.396,1.805C432.647,170.841,421.354,184.963,402.976,184.963z"/>
		</g>
		<g>
			<path style="fill:#2C1417;" d="M305.194,264.225l-10.14-16.785c-2.984-0.619-13.161-3.964-13.186-20.75l3-0.005
				c0.024,16.708,10.781,17.855,11.239,17.896l0.758,0.067l0.402,0.652l10.495,17.373L305.194,264.225z"/>
		</g>
		<g>
			<path style="fill:#2C1417;" d="M360.24,257.973l-2.059-2.182c15.342-14.483,14.308-28.828,14.296-28.972l2.988-0.268
				C375.524,227.192,376.708,242.427,360.24,257.973z"/>
		</g>
		<g>
			<path style="fill:#2C1417;" d="M412.615,229.586l-2.92-0.686l2.85-12.137c0.478-2.434,0.567-4.969,0.252-7.482l-0.404-3.225
				l1.506-0.172c1.723-0.198,3.096,0.195,4.13,0.742c0.52-9.533-7.705-16.07-7.795-16.141l1.844-2.366
				c0.463,0.361,11.293,8.976,8.536,21.7l-0.753,3.476l-1.964-2.965c-0.03-0.044-0.73-1.021-2.116-1.372
				c0.348,2.815,0.245,5.654-0.304,8.439L412.615,229.586z"/>
		</g>
		<g>
			<path style="fill:#2C1417;" d="M361.536,165.969c-4.333-7.52-32.022-3.157-42.327-0.84l-0.658-2.927
				c4.013-0.902,39.38-8.504,45.585,2.27L361.536,165.969z"/>
		</g>
	</g>
	<g>
		<g>
			<g>
				<path style="fill:#E2B061;" d="M366.288,408.39c-0.68-12.526-3.176-24.545-6.589-36.616
					c12.011-9.092,21.819-21.075,28.358-34.646c3.003-6.233,5.343-12.876,5.928-19.77c0.08-0.945,0.09-2.006-0.55-2.706
					c-0.424-0.465-1.055-0.673-1.659-0.848c-16.988-4.917-34.871,2.494-50.838,10.098c-15.967,7.604-33.173,14.934-50.737,12.868
					c-3.715-0.437-7.264-2.179-9.882-4.852c-0.27-0.276-0.578-0.582-0.964-0.579c-0.416,0.003-0.731,0.364-0.97,0.704
					c-2.194,3.109-3.248,7.059-2.462,10.782c-2.182-1.254-4.486-3.562-5.77-5.728c-2.195,1.942-3.106,4.959-3.47,7.868
					c-0.365,2.908-0.289,5.881-0.981,8.729c-1.783,7.333-9.176,12.81-16.682,12.598c-1.855-3.048-2.493-6.83-1.683-10.31
					c-1.686-0.028-3.353,0.921-4.191,2.384c-3.057-1.984-4.659-5.197-5.261-8.684c-2.045,1.521-2.853,4.717-2.641,7.609
					c-9.286-5.002-19.85-7.777-30.316-7.888c-15.609-0.166-30.974,4-45.563,9.554c-6.297,2.398-12.576,5.107-17.872,9.274
					c-5.73,4.509-10.081,10.558-13.599,16.945c-6.264,11.375-10.123,24.334-9.307,37.294c0.33,5.249,3.205,10.969,4.933,16.12
					c-0.656-0.615-1.866-0.941-2.847-0.983c-3.109-0.133-6.218-0.266-9.328-0.399c-3.198-0.137-6.563-0.239-9.411,1.222
					c-2.849,1.461-4.87,5.061-3.47,7.94c-3.822-0.794-8.052,1.428-9.568,5.025c-0.411,0.976-0.655,2.054-1.334,2.867
					c-0.878,1.05-2.366,1.506-3.086,2.67c-0.961,1.553-0.14,3.555,0.687,5.183c0.219,0.43,0.446,0.872,0.815,1.184
					c1.071,0.905,2.765,0.287,3.757-0.704c0.992-0.991,1.661-2.307,2.81-3.112c1.757-1.231,4.181-0.938,6.161-0.114
					c1.98,0.824,3.751,2.113,5.774,2.829c8.79,3.109,18.11-5.443,27.261-3.654c1.403,0.274,3.805,1.66,5.14,2.171h139.552
					c0.352,0-0.004-0.166,0.348-0.166c7.229,1.459,14.002,5.104,19.203,10.333c1.06-2.236,2.119-4.472,3.179-6.708
					c3.278,3.762,9.611,4.317,13.494,1.184c1.53-1.235,2.667-2.913,4.248-4.083c3.052-2.259,7.162-2.252,10.959-2.192
					c26.581,0.417,53.714-1.614,80.131-5.34c3.636-0.513,5.576-4.511,3.777-7.713C401.989,428.609,385.172,413.941,366.288,408.39z"
					/>
			</g>
		</g>
		<g>
			<g>
				<path style="fill:#F4EEE4;" d="M126.116,388.607c-0.37,0.749-0.729,1.504-1.077,2.265c-0.083,0.182-0.169,0.363-0.251,0.545
					c-0.425,0.948-0.832,1.903-1.22,2.867c-0.053,0.133-0.103,0.267-0.156,0.4c-0.34,0.858-0.664,1.721-0.973,2.59
					c-0.065,0.184-0.131,0.367-0.195,0.552c-0.698,2.014-1.312,4.054-1.828,6.116c-0.032,0.127-0.062,0.255-0.093,0.383
					c-0.24,0.983-0.461,1.971-0.656,2.962c-0.012,0.06-0.025,0.12-0.037,0.18c-0.212,1.091-0.397,2.186-0.552,3.284c0,0,0,0,0,0.001
					c5.386,5.973,14.138,7.177,22.084,8.468c7.696,1.25,15.525,2.84,23.064,4.832c9.362,2.474,19.355,2.521,28.74,0.133
					c12.792-3.254,25.313-10.985,38.229-8.266c7.022,1.478,13.173,6.044,17.397,11.845c4.224,5.801,6.639,12.766,7.871,19.835
					c0.551,3.161,0.913,6.466,2.569,9.215c0.56,0.931,0.848,2.476,1.215,3.899h16.19c0.352,0-0.004-0.166,0.348-0.166
					c0.169,0.034,0.333,0.085,0.501,0.121c-2.422-13.104-15.451-36.655-19.19-49.418c-4.432-15.127-4.878-31.398-1.318-46.751
					c-0.548,0.274-1.109,0.517-1.681,0.732c-0.073,0.028-0.146,0.057-0.219,0.084c-0.243,0.087-0.487,0.168-0.733,0.244
					c-0.158,0.049-0.316,0.094-0.475,0.138c-0.212,0.059-0.423,0.12-0.637,0.171c-0.357,0.085-0.717,0.156-1.078,0.216
					c-0.143,0.023-0.287,0.04-0.43,0.059c-0.287,0.04-0.575,0.072-0.864,0.095c-0.132,0.011-0.263,0.022-0.396,0.029
					c-0.413,0.023-0.827,0.035-1.242,0.023c-1.855-3.048-2.493-6.83-1.683-10.31c-1.686-0.028-3.353,0.921-4.191,2.384
					c-3.057-1.984-4.659-5.197-5.261-8.684c-2.045,1.521-2.853,4.717-2.641,7.609c-9.286-5.002-19.85-7.777-30.316-7.888
					c-15.609-0.166-30.974,4-45.563,9.554c-6.297,2.398-12.576,5.107-17.872,9.274c-5.73,4.509-10.081,10.558-13.599,16.945
					c-0.489,0.888-0.957,1.788-1.416,2.694C126.359,388.114,126.238,388.36,126.116,388.607z"/>
			</g>
		</g>
		<g>
			<g>
				<g>
					<path style="fill:#E2B061;" d="M166.82,443.934c5.523-6.255,4.597-16.611-0.877-22.908c-5.474-6.298-14.423-8.799-22.729-8.004
						c-3.422,0.327-6.886,1.311-9.612,3.405c1.501-4.478,1.903-9.32,1.161-13.984c-0.174-1.092-0.414-2.187-0.906-3.176
						c-1.071-2.151-3.376-3.631-5.777-3.709c-2.402-0.078-4.798,1.25-6.005,3.327c-4.162,7.159-5.327,14.983-2.487,22.763
						c2.455,6.727,8.224,11.6,13.755,16.148c4.734,3.892,9.585,7.852,15.33,9.984C154.416,449.911,162.763,448.528,166.82,443.934z"
						/>
				</g>
			</g>
			<g>
				<g>
					<path style="fill:#F4EEE4;" d="M129.08,420.759c0.799-0.358,1.606-0.743,2.236-1.35c0.427-0.413,0.758-0.914,1.066-1.422
						c1.864-3.072,3.05-6.552,3.45-10.123c0.305-2.724,0.139-5.569-1.006-8.059c-1.145-2.491-3.383-4.576-6.082-5.052
						c-0.876-0.155-1.792-0.138-2.642,0.125c-2.349,0.728-3.731,3.113-4.704,5.371c-2.647,6.148-3.957,12.867-3.81,19.559
						c0.042,1.918,0.399,5.362,3.202,3.513C123.43,421.578,126.176,422.063,129.08,420.759z"/>
				</g>
			</g>
			<g>
				<g>
					<path style="fill:#2C1417;" d="M167.944,444.927l-2.249-1.986c4.81-5.446,4.413-14.836-0.885-20.931
						c-4.726-5.437-12.95-8.309-21.454-7.495c-3.642,0.348-6.616,1.392-8.842,3.101l-3.899,2.995l1.563-4.661
						c1.426-4.253,1.807-8.842,1.102-13.27c-0.139-0.875-0.339-1.884-0.768-2.744c-0.827-1.662-2.628-2.818-4.483-2.879
						c-1.88-0.043-3.728,0.978-4.66,2.582c-3.467,5.963-4.443,14.141-2.983,25l-2.974,0.4c-1.552-11.545-0.452-20.347,3.363-26.908
						c1.494-2.568,4.372-4.171,7.351-4.072c2.972,0.097,5.748,1.879,7.072,4.54c0.609,1.222,0.87,2.51,1.045,3.608
						c0.584,3.671,0.495,7.44-0.248,11.079c2.058-0.915,4.425-1.504,7.076-1.757c9.595-0.923,18.571,2.264,24.003,8.513
						C173.323,427.229,173.713,438.394,167.944,444.927z"/>
				</g>
			</g>
		</g>
		<g>
			<g>
				<g>
					<path style="fill:#E2B061;" d="M246.825,422.853c-10.942-7.813-35.779-15.824-45.099-2.656
						c-2.48,12.043,10.251,12.777,19.642,15.682c3.801,1.176,6.773,4.12,8.215,7.829c2.361,6.075,5.449,6.955,14.087,8.416
						C264.06,454.421,258.311,430.612,246.825,422.853z"/>
				</g>
			</g>
			<g>
				<g>
					<path style="fill:#F4EEE4;" d="M222.851,412.563c-4.753,6.309-7.337,14.221-7.223,22.119
						c-4.098-0.598-8.335-2.205-11.016-5.363c-2.681-3.157-3.4-8.201-0.807-11.43c0.964-1.201,2.283-2.064,3.641-2.79
						C212.076,412.625,217.625,412.071,222.851,412.563z"/>
				</g>
			</g>
			<g>
				<g>
					<path style="fill:#2C1417;" d="M257.234,450.125l-2.82-1.022c1.454-4.019,0.038-14.243-1.95-17.628
						c-1.635-2.78-3.905-5.353-6.565-7.442c-4.789-3.759-11.032-6.388-19.085-8.036c-7.496-1.536-13.242-1.448-18.082,0.271
						c-2.027,0.722-4.647,2.086-5.614,4.49c-1.177,2.931,0.606,6.38,2.977,8.273c2.751,2.197,6.515,3.148,9.836,3.987l6.738,1.703
						c1.992,0.503,5.005,1.264,6.712,3.613l-2.428,1.764c-0.986-1.358-2.937-1.942-5.02-2.469l-6.738-1.703
						c-3.616-0.913-7.714-1.949-10.973-4.552c-3.137-2.505-5.692-7.245-3.888-11.735c1.383-3.44,4.783-5.27,7.392-6.197
						c5.379-1.913,11.635-2.032,19.688-0.385c8.52,1.744,15.172,4.563,20.336,8.616c2.952,2.317,5.476,5.182,7.298,8.282
						C257.475,434.082,259.014,445.21,257.234,450.125z"/>
				</g>
			</g>
		</g>
		<g>
			<g>
				<path style="fill:#2C1417;" d="M226.461,405.106c-7.702-1.305-13.273-7.589-18.32-13.913l-2.561-3.209l4.026,0.803
					c1.153,0.229,2.316,0.365,3.482,0.408c-3.698-3.607-5.666-8.935-4.96-14.116c0.044-0.324,0.161-1.188,0.926-1.741
					c0.968-0.698,2.055-0.281,2.465-0.125c0.721,0.274,1.495,0.431,2.276,0.468c-0.235-0.382-0.436-0.785-0.598-1.203l-0.741-1.909
					l2.044-0.131c6.282-0.402,13.584-1.383,14.93-2.327l1.724,2.455c-2.112,1.483-9.58,2.31-13.832,2.669
					c0.123,0.103,0.251,0.198,0.384,0.287l2.593,1.725l-2.965,0.952c-2.046,0.657-4.263,0.659-6.31,0.018
					c-0.381,5.123,2.471,10.467,6.985,12.926l3.942,2.147l-4.441,0.654c-1.558,0.23-3.124,0.309-4.683,0.244
					c4.152,4.915,8.531,9.012,14.134,9.962L226.461,405.106z"/>
			</g>
		</g>
		<g>
			<g>
				<g>
					<path style="fill:#F4EEE4;" d="M283.044,331.507c2.588,1.375,4.095,4.18,3.79,7.094c-0.706,6.75-0.797,13.574,0.548,20.207
						c1.662,8.198,5.707,16.141,12.343,21.233c7.473,5.736,17.313,7.298,26.726,7.679c11.756,0.476,24.839-1.308,36.315-3.902
						c0.374,2.79,0.792,3.717,1.513,7.528c-4.241-0.506-7.497,0.089-11.605,1.255c-5.716,1.623-11.433,3.246-17.149,4.868
						c-5.135,1.458-10.357,2.954-14.836,5.858c-6.867,4.451-11.347,11.817-14.342,19.433c-2.704,6.875-4.391,14.436-2.824,21.656
						c1.567,7.22,7.001,13.942,14.267,15.28c0.132,1.13-0.567,2.699-1.251,3.609c-1.935,2.573-4.874,4.435-8.071,4.819
						c-3.197,0.384-6.601-0.803-8.676-3.265c-0.652,1.194-1.682,3.665-2.589,5.72c-0.622,1.409-2.382,1.898-3.633,1
						c-4.182-3.004-8.572-7.229-12.653-9.643c-2.221-1.314-5.862-0.191-7.66-2.043c-1.616-1.665-2.061-6.984-3.23-8.988
						c-9.249-15.848-18.311-32.616-19.492-50.927c-0.738-11.449-0.222-22.949,2.169-34.17c0,0,10.62-0.211,12.439-18.134
						c0.456-4.49,1.708-8.869,3.636-12.949l0.393-0.831l6.755,8.931c0,0-1.799-6.989,1.513-11.63
						c0.788-1.103,2.269-1.461,3.466-0.824L283.044,331.507z"/>
				</g>
			</g>
			<g>
				<g>
					<path style="fill:#F4EEE4;" d="M357.066,360.84c-2.617-4.976-5.287-9.957-8.699-14.425c-3.412-4.468-7.626-8.436-12.702-10.853
						c12.494-8.443,27.215-14.267,42.21-15.865c1.044-0.111,2.185-0.182,3.057,0.402c0.987,0.661,1.316,1.954,1.41,3.139
						c0.293,3.699-0.958,7.36-2.632,10.672c-3.151,6.236-7.788,11.576-12.376,16.845
						C364.345,354.188,360.055,357.407,357.066,360.84z"/>
				</g>
			</g>
			<g>
				<g>
					<path style="fill:#F4EEE4;" d="M356.245,447.714c1.685-3.202,3.364-6.406,5.038-9.614c1.303-2.497,2.608-5.009,3.482-7.686
						c1.149-3.517,1.53-7.283,1.108-10.959c10.296,3.479,19.353,10.111,28.037,16.646c3.279,2.467,6.738,5.18,8.004,9.083
						c-2.635,3.046-6.982,3.837-10.987,4.262C379.682,450.641,367.438,449.324,356.245,447.714z"/>
				</g>
			</g>
			<g>
				<g>
					<g>
						<g>
							<g>
								<path style="fill:#2C1417;" d="M316.247,374.996c-0.249,0.139-6.159,3.382-11.078,1.554
									c-2.345-0.871-4.043-2.706-5.047-5.451c-1.002-2.742-0.905-5.282,0.29-7.547c2.495-4.731,8.927-6.419,9.2-6.488l0.659,2.585
									c-0.054,0.014-5.569,1.475-7.504,5.155c-0.836,1.59-0.881,3.349-0.14,5.378c0.733,2.006,1.868,3.27,3.47,3.866
									c3.135,1.165,7.451-0.604,8.849-1.384L316.247,374.996z"/>
							</g>
						</g>
					</g>
				</g>
				<g>
					<g>
						<g>
							<g>
								<path style="fill:#2C1417;" d="M330.775,439.64c-0.281,0.045-6.946,1.063-10.938-2.343
									c-1.904-1.623-2.869-3.929-2.869-6.852c0-2.92,0.963-5.271,2.863-6.989c3.968-3.587,10.588-2.965,10.868-2.936l-0.268,2.655
									c-0.055-0.005-5.737-0.526-8.817,2.267c-1.331,1.207-1.977,2.843-1.977,5.004c0,2.135,0.632,3.713,1.932,4.822
									c2.545,2.17,7.205,1.99,8.786,1.738L330.775,439.64z"/>
							</g>
						</g>
					</g>
				</g>
				<g>
					<g>
						<g>
							<g>
								<path style="fill:#2C1417;" d="M306.818,413.79C306.818,413.79,306.818,413.79,306.818,413.79
									c-3.228,0.753-6.467-1.26-7.22-4.488c-0.753-3.228,1.26-6.467,4.488-7.221c0,0,0,0,0,0l-0.647-2.775c0,0,0,0,0,0
									c-3.228,0.753-6.467-1.26-7.22-4.489c-0.753-3.228,1.26-6.467,4.489-7.22c0,0,0,0,0,0l-0.647-2.775c0,0,0,0,0,0
									c-4.758,1.11-7.726,5.884-6.616,10.642c0.708,3.035,2.909,5.335,5.642,6.319c-2.016,2.093-2.971,5.13-2.264,8.164
									c1.11,4.758,5.884,7.726,10.642,6.616c0,0,0,0,0,0L306.818,413.79z"/>
							</g>
						</g>
					</g>
					<g>
						<g>
							<g>
								<path style="fill:#2C1417;" d="M309.2,407.18c-2.67,0.623-5.665-2.429-6.689-6.818c-1.024-4.388,0.311-8.451,2.982-9.074
									c2.67-0.623,5.665,2.429,6.689,6.818C313.205,402.495,311.871,406.557,309.2,407.18z"/>
							</g>
						</g>
						<g>
							<g>
								<path style="fill:#F6F3F4;" d="M308.699,404.319c-0.646,0.023-1.205-0.949-1.249-2.171
									c-0.043-1.222,0.445-2.231,1.092-2.254c0.646-0.023,1.205,0.949,1.249,2.171
									C309.834,403.287,309.345,404.296,308.699,404.319z"/>
							</g>
						</g>
					</g>
				</g>
				<g>
					<g>
						<g>
							<path style="fill:#E79D75;" d="M292.786,384.09c-4.285,1-8.971-3.387-10.467-9.799c-1.496-6.411,0.766-12.419,5.051-13.419
								c4.285-1,8.971,3.387,10.467,9.799C299.333,377.083,297.072,383.091,292.786,384.09z"/>
						</g>
					</g>
				</g>
				<g>
					<g>
						<g>
							<path style="fill:#E79D75;" d="M308.097,443.392c-4.385,0.359-8.377-4.668-8.914-11.23
								c-0.538-6.561,2.581-12.172,6.967-12.531s8.377,4.668,8.914,11.23C315.602,437.422,312.483,443.033,308.097,443.392z"/>
						</g>
					</g>
				</g>
			</g>
			<g>
				<g>
					<path style="fill:#F4EEE4;" d="M334.939,353.26c-1.107,2.455-5.84,2.715-10.572,0.582c-4.732-2.134-7.671-5.853-6.565-8.307
						s5.84-2.715,10.572-0.582C333.106,347.086,336.045,350.805,334.939,353.26z"/>
				</g>
			</g>
			<g>
				<g>
					<path style="fill:#F4EEE4;" d="M346.481,439.532c-2.691,0.096-5.021-4.032-5.206-9.22c-0.184-5.188,1.848-9.471,4.538-9.566
						s5.022,4.032,5.206,9.22C351.204,435.154,349.172,439.437,346.481,439.532z"/>
				</g>
			</g>
		</g>
		<g>
			<path style="fill:#E2B061;" d="M340.763,338.691l9.872-2.245l-2.268,9.968h7.407l-2.127,8.126
				C353.647,354.541,342.212,351.055,340.763,338.691z"/>
		</g>
		<g>
			<path style="fill:#E2B061;" d="M365.108,424.837c0,0,5.041,3.525,8.863,9.845l-11.259-1.949l2.575,7.083h-9.042L365.108,424.837z
				"/>
		</g>
		<g>
			<path style="fill:#2C1417;" d="M272.295,442.252c-0.588-0.507-14.385-12.851-14.899-49.753l3-0.041
				c0.493,35.386,13.732,47.411,13.865,47.528L272.295,442.252z"/>
		</g>
		<g>
			<path style="fill:#2C1417;" d="M87.403,451.493c-0.114-1.736,0.442-3.247,1.609-4.369c2.135-2.053,5.815-2.362,7.977-2.331
				c0.211-3.452,1.519-6.101,3.899-7.887c6.747-5.062,19.706-0.905,20.254-0.726l-0.932,2.852
				c-0.119-0.039-12.027-3.853-17.525,0.276c-1.937,1.455-2.826,3.748-2.719,7.012l0.057,1.717l-1.711-0.176
				c-1.442-0.15-5.553-0.182-7.223,1.428c-0.529,0.51-0.749,1.147-0.693,2.007L87.403,451.493z"/>
		</g>
	</g>
	<g>
		<g>
			<g>
				<path style="fill:#F6F3F4;" d="M271.375,127.169c0.77-3.352-0.694-6.939-3.606-8.769c-3.009-1.891-6.605-1.596-9.203,0.261
					c-0.316-3.053-2.324-5.842-5.508-6.944c-2.92-1.011-6.223-0.198-8.44,1.955c-1.288,1.251-1.973,2.685-2.279,4.144
					c-1.775,6.377,2.601,17.242,5.013,22.492c0.785,1.708,2.792,2.458,4.501,1.674c4.896-2.245,14.312-6.927,17.573-11.094
					C270.339,129.89,271.036,128.645,271.375,127.169z"/>
			</g>
		</g>
		<g>
			<g>
				<path style="fill:#F6F3F4;" d="M112.64,346.03c-1.728-2.974-5.247-4.593-8.624-3.94c-3.489,0.675-5.913,3.347-6.542,6.478
					c-2.317-2.014-5.688-2.678-8.766-1.309c-2.823,1.256-4.679,4.107-4.828,7.193c-0.086,1.794,0.394,3.309,1.167,4.583
					c3.06,5.869,13.678,10.815,19.026,13.001c1.74,0.711,3.718-0.113,4.431-1.852c2.042-4.984,5.719-14.836,5.255-20.107
					C113.742,348.725,113.401,347.34,112.64,346.03z"/>
			</g>
		</g>
		<g>
			<g>
				<path style="fill:#F6F3F4;" d="M436.757,362.076c0.906-3.318-0.41-6.961-3.245-8.909c-2.929-2.012-6.534-1.864-9.206-0.115
					c-0.191-3.064-2.084-5.932-5.219-7.163c-2.876-1.129-6.21-0.452-8.513,1.608c-1.339,1.197-2.081,2.602-2.447,4.048
					c-2.034,6.299,1.895,17.334,4.09,22.678c0.714,1.738,2.69,2.57,4.429,1.857c4.983-2.043,14.583-6.337,18.012-10.366
					C435.611,364.751,436.358,363.537,436.757,362.076z"/>
			</g>
		</g>
	</g>
</g>
</svg>
